<svg xmlns="http://www.w3.org/2000/svg" version="1.1" xmlns:xlink="http://www.w3.org/1999/xlink" width="48" height="48"><svg id="SvgjsSvg1305" xmlns="http://www.w3.org/2000/svg" viewBox="0 0 48 48"><path d="M44.16,16.54v-2.27c0-4.72-3.86-8.58-8.58-8.58h-.49v4.85c0,1.63-1.33,2.96-2.96,2.96s-2.96-1.33-2.96-2.96v-4.85h-10.73v4.85c0,1.63-1.33,2.96-2.96,2.96s-2.96-1.33-2.96-2.96v-4.85h-.49c-4.72,0-8.58,3.86-8.58,8.58v23.53c0,4.72,3.86,8.58,8.58,8.58h23.53c4.72,0,8.58-3.86,8.58-8.58v-2.27H12.42v-19h31.75Z" fill="#175f65"></path><path d="M15.5,11.9c.95,0,1.73-.78,1.73-1.73V3.35c0-.95-.78-1.73-1.73-1.73s-1.73.78-1.73,1.73v6.82c0,.95.78,1.73,1.73,1.73Z" fill="#3cdf9e"></path><path d="M32.14,11.9c.95,0,1.73-.78,1.73-1.73V3.35c0-.95-.78-1.73-1.73-1.73s-1.73.78-1.73,1.73v6.82c0,.95.78,1.73,1.73,1.73Z" fill="#3cdf9e"></path><rect x="15.5" y="27.42" width="5.44" height="5.44" rx="1" ry="1" fill="#3cdf9e"></rect><rect x="24.8" y="27.42" width="5.44" height="5.44" rx="1" ry="1" fill="#3cdf9e"></rect><rect x="34.1" y="27.42" width="5.44" height="5.44" rx="1" ry="1" fill="#3cdf9e"></rect><rect x="15.5" y="19.22" width="5.44" height="5.44" rx="1" ry="1" fill="#3cdf9e"></rect><rect x="24.8" y="19.22" width="5.44" height="5.44" rx="1" ry="1" fill="#3cdf9e"></rect><rect x="34.1" y="19.22" width="5.44" height="5.44" rx="1" ry="1" fill="#3cdf9e"></rect></svg><style>@media (prefers-color-scheme: light) { :root { filter: none; } }
@media (prefers-color-scheme: dark) { :root { filter: none; } }
</style></svg>